{
    "asset" : {
        "generator" : "Khronos glTF Blender I/O v3.3.32",
        "version" : "2.0"
    },
    "scene" : 0,
    "scenes" : [
        {
            "name" : "Scene",
            "nodes" : [
                0
            ]
        }
    ],
    "nodes" : [
        {
            "mesh" : 0,
            "name" : "itokawa_LP",
            "scale" : [
                -0.00706524308770895,
                -0.007065249141305685,
                -0.007065249141305685
            ]
        }
    ],
    "materials" : [
        {
            "name" : "itokawa",
            "normalTexture" : {
                "index" : 0
            },
            "pbrMetallicRoughness" : {
                "baseColorTexture" : {
                    "index" : 1
                },
                "metallicFactor" : 0.5,
                "roughnessFactor" : 0.8999999761581421
            }
        }
    ],
    "meshes" : [
        {
            "name" : "itokawa_LP1:Mesh.001",
            "primitives" : [
                {
                    "attributes" : {
                        "POSITION" : 0,
                        "NORMAL" : 1,
                        "TEXCOORD_0" : 2
                    },
                    "indices" : 3,
                    "material" : 0
                }
            ]
        }
    ],
    "textures" : [
        {
            "sampler" : 0,
            "source" : 0
        },
        {
            "sampler" : 0,
            "source" : 1
        }
    ],
    "images" : [
        {
            "bufferView" : 4,
            "mimeType" : "image/png",
            "name" : "itokawa_normals"
        },
        {
            "bufferView" : 5,
            "mimeType" : "image/png",
            "name" : "itokawa_diff"
        }
    ],
    "accessors" : [
        {
            "bufferView" : 0,
            "componentType" : 5126,
            "count" : 1404,
            "max" : [
                291.5119323730469,
                117.59300231933594,
                148.7395477294922
            ],
            "min" : [
                -243.7985382080078,
                -113.91869354248047,
                -141.7004852294922
            ],
            "type" : "VEC3"
        },
        {
            "bufferView" : 1,
            "componentType" : 5126,
            "count" : 1404,
            "type" : "VEC3"
        },
        {
            "bufferView" : 2,
            "componentType" : 5126,
            "count" : 1404,
            "type" : "VEC2"
        },
        {
            "bufferView" : 3,
            "componentType" : 5123,
            "count" : 7938,
            "type" : "SCALAR"
        }
    ],
    "bufferViews" : [
        {
            "buffer" : 0,
            "byteLength" : 16848,
            "byteOffset" : 0,
            "target" : 34962
        },
        {
            "buffer" : 0,
            "byteLength" : 16848,
            "byteOffset" : 16848,
            "target" : 34962
        },
        {
            "buffer" : 0,
            "byteLength" : 11232,
            "byteOffset" : 33696,
            "target" : 34962
        },
        {
            "buffer" : 0,
            "byteLength" : 15876,
            "byteOffset" : 44928,
            "target" : 34963
        },
        {
            "buffer" : 0,
            "byteLength" : 1259215,
            "byteOffset" : 60804
        },
        {
            "buffer" : 0,
            "byteLength" : 366489,
            "byteOffset" : 1320020
        }
    ],
    "samplers" : [
        {
            "magFilter" : 9729,
            "minFilter" : 9987
        }
    ],
    "buffers" : [
        {
            "byteLength" : 1686512,
            "uri" : "data:application/octet-stream;base64,"
        }
    ]
}
