{
    "asset" : {
        "generator" : "Khronos glTF Blender I/O v3.3.32",
        "version" : "2.0"
    },
    "scene" : 0,
    "scenes" : [
        {
            "name" : "Scene",
            "nodes" : [
                0
            ]
        }
    ],
    "nodes" : [
        {
            "mesh" : 0,
            "name" : "10464_Asteroid_v1_Iterations-2.001",
            "rotation" : [
                0.7071068286895752,
                0,
                0,
                0.7071067094802856
            ],
            "scale" : [
                -0.0020260883029550314,
                -0.0020260883029550314,
                -0.0020260883029550314
            ]
        }
    ],
    "materials" : [
        {
            "doubleSided" : true,
            "name" : "_10464_Asteroid_v1_max201010464_Asteroid_v1",
            "pbrMetallicRoughness" : {
                "baseColorTexture" : {
                    "index" : 0
                },
                "metallicFactor" : 0,
                "roughnessFactor" : 0.8945907354354858
            }
        }
    ],
    "meshes" : [
        {
            "name" : "10464_Asteroid_v1_Iterations-2.001",
            "primitives" : [
                {
                    "attributes" : {
                        "POSITION" : 0,
                        "NORMAL" : 1,
                        "TEXCOORD_0" : 2
                    },
                    "indices" : 3,
                    "material" : 0
                }
            ]
        }
    ],
    "textures" : [
        {
            "sampler" : 0,
            "source" : 0
        }
    ],
    "images" : [
        {
            "bufferView" : 4,
            "mimeType" : "image/jpeg",
            "name" : "10464_Asteroid_v1_diffuse"
        }
    ],
    "accessors" : [
        {
            "bufferView" : 0,
            "componentType" : 5126,
            "count" : 7170,
            "max" : [
                685.365478515625,
                1388.679443359375,
                693.0570068359375
            ],
            "min" : [
                -679.9130859375,
                12.005000114440918,
                -690.0350952148438
            ],
            "type" : "VEC3"
        },
        {
            "bufferView" : 1,
            "componentType" : 5126,
            "count" : 7170,
            "type" : "VEC3"
        },
        {
            "bufferView" : 2,
            "componentType" : 5126,
            "count" : 7170,
            "type" : "VEC2"
        },
        {
            "bufferView" : 3,
            "componentType" : 5123,
            "count" : 41472,
            "type" : "SCALAR"
        }
    ],
    "bufferViews" : [
        {
            "buffer" : 0,
            "byteLength" : 86040,
            "byteOffset" : 0,
            "target" : 34962
        },
        {
            "buffer" : 0,
            "byteLength" : 86040,
            "byteOffset" : 86040,
            "target" : 34962
        },
        {
            "buffer" : 0,
            "byteLength" : 57360,
            "byteOffset" : 172080,
            "target" : 34962
        },
        {
            "buffer" : 0,
            "byteLength" : 82944,
            "byteOffset" : 229440,
            "target" : 34963
        },
        {
            "buffer" : 0,
            "byteLength" : 943695,
            "byteOffset" : 312384
        }
    ],
    "samplers" : [
        {
            "magFilter" : 9729,
            "minFilter" : 9987
        }
    ],
    "buffers" : [
        {
            "byteLength" : 1256080,
            "uri" : "data:application/octet-stream;base64,"
        }
    ]
}
