{
    "asset" : {
        "generator" : "Khronos glTF Blender I/O v3.3.32",
        "version" : "2.0"
    },
    "scene" : 0,
    "scenes" : [
        {
            "name" : "Scene",
            "nodes" : [
                1,
                4
            ]
        }
    ],
    "nodes" : [
        {
            "name" : "383e05c430874c8e923a0cebc5ede96c.obj.cleaner.materialmerger.gle"
        },
        {
            "children" : [
                0
            ],
            "name" : "Sketchfab_model",
            "rotation" : [
                -0.7071068286895752,
                0,
                0,
                0.7071067094802856
            ]
        },
        {
            "mesh" : 0,
            "name" : "Object_2"
        },
        {
            "children" : [
                2
            ],
            "name" : "154e60d7e9114d289a6b34ed41eac544.obj.cleaner.materialmerger.gle"
        },
        {
            "children" : [
                3
            ],
            "name" : "Sketchfab_model.001",
            "rotation" : [
                -0.7071068286895752,
                0,
                0,
                0.7071067094802856
            ]
        }
    ],
    "materials" : [
        {
            "doubleSided" : true,
            "name" : "Material.001",
            "normalTexture" : {
                "index" : 0
            },
            "pbrMetallicRoughness" : {
                "baseColorFactor" : [
                    0.800000011920929,
                    0.800000011920929,
                    0.800000011920929,
                    1
                ],
                "metallicFactor" : 0,
                "metallicRoughnessTexture" : {
                    "index" : 1
                }
            }
        }
    ],
    "meshes" : [
        {
            "name" : "Object_0.001",
            "primitives" : [
                {
                    "attributes" : {
                        "POSITION" : 0,
                        "NORMAL" : 1,
                        "TEXCOORD_0" : 2
                    },
                    "indices" : 3,
                    "material" : 0
                }
            ]
        }
    ],
    "textures" : [
        {
            "sampler" : 0,
            "source" : 0
        },
        {
            "sampler" : 0,
            "source" : 1
        }
    ],
    "images" : [
        {
            "bufferView" : 4,
            "mimeType" : "image/jpeg",
            "name" : "GroundSnowPitted003_BUMP_1K"
        },
        {
            "bufferView" : 5,
            "mimeType" : "image/png",
            "name" : "GroundSnowPitted003_GLOSS_1K"
        }
    ],
    "accessors" : [
        {
            "bufferView" : 0,
            "componentType" : 5126,
            "count" : 532,
            "max" : [
                1.159896969795227,
                1.0836290121078491,
                1.4309569597244263
            ],
            "min" : [
                -1.089184045791626,
                -1.3834359645843506,
                -1.7075300216674805
            ],
            "type" : "VEC3"
        },
        {
            "bufferView" : 1,
            "componentType" : 5126,
            "count" : 532,
            "type" : "VEC3"
        },
        {
            "bufferView" : 2,
            "componentType" : 5126,
            "count" : 532,
            "type" : "VEC2"
        },
        {
            "bufferView" : 3,
            "componentType" : 5123,
            "count" : 2988,
            "type" : "SCALAR"
        }
    ],
    "bufferViews" : [
        {
            "buffer" : 0,
            "byteLength" : 6384,
            "byteOffset" : 0,
            "target" : 34962
        },
        {
            "buffer" : 0,
            "byteLength" : 6384,
            "byteOffset" : 6384,
            "target" : 34962
        },
        {
            "buffer" : 0,
            "byteLength" : 4256,
            "byteOffset" : 12768,
            "target" : 34962
        },
        {
            "buffer" : 0,
            "byteLength" : 5976,
            "byteOffset" : 17024,
            "target" : 34963
        },
        {
            "buffer" : 0,
            "byteLength" : 203547,
            "byteOffset" : 23000
        },
        {
            "buffer" : 0,
            "byteLength" : 371513,
            "byteOffset" : 226548
        }
    ],
    "samplers" : [
        {
            "magFilter" : 9729,
            "minFilter" : 9987
        }
    ],
    "buffers" : [
        {
            "byteLength" : 598064,
            "uri" : "data:application/octet-stream;base64,"
        }
    ]
}
